<svg width="800" height="800" viewBox="0 0 800 800" fill="none" xmlns="http://www.w3.org/2000/svg">
<rect width="377" height="507" transform="translate(227 158)" fill="white"/>
<path d="M733.347 403.326C733.347 469.256 713.797 533.706 677.168 588.524C640.539 643.343 588.478 686.069 527.566 711.299C466.655 736.53 399.63 743.131 334.967 730.269C270.304 717.406 210.907 685.658 164.288 639.039C117.668 592.419 85.92 533.022 73.0577 468.359C60.1954 403.696 66.7968 336.671 92.027 275.76C117.257 214.849 159.983 162.787 214.802 126.158C269.621 89.5295 334.07 69.979 400 69.979C443.776 69.979 487.123 78.6013 527.566 95.3536C568.01 112.106 604.758 136.66 635.712 167.614C666.666 198.568 691.22 235.316 707.973 275.76C724.725 316.203 733.347 359.551 733.347 403.326ZM572.042 306.695C574.011 305.734 575.772 304.394 577.223 302.752C578.674 301.11 579.788 299.198 580.499 297.125C581.211 295.053 581.507 292.86 581.371 290.673C581.235 288.486 580.669 286.347 579.705 284.379C563.473 251.017 538.183 222.894 506.726 203.223C475.268 183.551 438.912 173.126 401.81 173.137C400.721 173.144 399.636 173.257 398.568 173.474C389.234 173.554 380.028 175.667 371.594 179.667C363.159 183.666 355.696 189.455 349.726 196.632H349.684L349.474 196.926C348.03 198.692 346.68 200.533 345.431 202.442C341.837 206.459 337.378 209.608 332.39 211.651C327.402 213.695 322.015 214.579 316.636 214.239C311.256 213.898 306.024 212.341 301.334 209.685C296.643 207.029 292.617 203.343 289.558 198.905C288.316 195.147 285.777 191.953 282.396 189.895C279.015 187.836 275.012 187.048 271.103 187.671C267.194 188.294 263.634 190.287 261.059 193.294C258.485 196.301 257.065 200.126 257.052 204.084V271.663C257.04 275.586 258.412 279.388 260.926 282.4C263.44 285.412 266.936 287.441 270.798 288.13C274.66 288.819 278.642 288.124 282.042 286.167C285.443 284.21 288.044 281.117 289.389 277.432C292.476 272.856 296.584 269.06 301.388 266.344C306.193 263.627 311.563 262.064 317.075 261.779C322.587 261.493 328.09 262.492 333.15 264.697C338.21 266.902 342.688 270.252 346.231 274.484C347.017 275.663 347.86 276.786 348.758 277.853C352.544 283.664 354.549 290.454 354.526 297.39V309.347H456.253V277.179C456.253 267.732 460.005 258.671 466.686 251.991C473.366 245.311 482.426 241.558 491.874 241.558C497.558 241.542 503.163 242.9 508.21 245.516C525.615 260.272 539.766 278.481 549.768 298.99C551.135 301.803 553.265 304.175 555.915 305.836C558.566 307.496 561.63 308.377 564.758 308.379C567.283 308.387 569.776 307.81 572.042 306.695ZM442.021 346.484C441.999 342.955 440.584 339.577 438.085 337.086C435.585 334.594 432.203 333.19 428.674 333.179H376.337C372.807 333.19 369.425 334.594 366.926 337.086C364.426 339.577 363.012 342.955 362.989 346.484V628.042C363 631.579 364.41 634.967 366.911 637.468C369.412 639.969 372.8 641.378 376.337 641.39H428.674C432.21 641.378 435.599 639.969 438.099 637.468C440.6 634.967 442.01 631.579 442.021 628.042V346.484Z" fill="#27ADEF"/>
</svg>
